<svg width="31" height="30" viewBox="0 0 31 30" fill="none" xmlns="http://www.w3.org/2000/svg">
<path d="M13.095 13.75C13.845 13.75 14.4525 14.3125 14.4388 15C14.4388 15.6875 13.8463 16.25 13.095 16.25C12.3575 16.25 11.75 15.6875 11.75 15C11.75 14.3125 12.3438 13.75 13.095 13.75ZM17.905 13.75C18.6562 13.75 19.25 14.3125 19.25 15C19.25 15.6875 18.6562 16.25 17.905 16.25C17.1675 16.25 16.5612 15.6875 16.5612 15C16.5612 14.3125 17.1537 13.75 17.905 13.75ZM24.1138 2.5C25.5675 2.5 26.75 3.7075 26.75 5.20375V28.75L23.9862 26.2562L22.43 24.7863L20.7837 23.2238L21.4663 25.6525H6.88625C5.4325 25.6525 4.25 24.445 4.25 22.9487V5.20375C4.25 3.7075 5.4325 2.5 6.88625 2.5H24.1125H24.1138ZM19.1512 19.6413C21.9925 19.55 23.0863 17.6462 23.0863 17.6462C23.0863 13.42 21.2337 9.99375 21.2337 9.99375C19.3837 8.5775 17.6212 8.61625 17.6212 8.61625L17.4413 8.82625C19.6275 9.50875 20.6425 10.4938 20.6425 10.4938C19.4488 9.82124 18.1333 9.39292 16.7725 9.23375C15.9093 9.13625 15.0374 9.14465 14.1762 9.25875C14.0987 9.25875 14.0337 9.2725 13.9575 9.285C13.5075 9.325 12.4137 9.495 11.0387 10.1125C10.5637 10.335 10.28 10.4938 10.28 10.4938C10.28 10.4938 11.3475 9.45625 13.6613 8.77375L13.5325 8.61625C13.5325 8.61625 11.7712 8.5775 9.92 9.995C9.92 9.995 8.06875 13.42 8.06875 17.6462C8.06875 17.6462 9.14875 19.5488 11.99 19.6413C11.99 19.6413 12.465 19.0512 12.8525 18.5525C11.2187 18.0525 10.6025 17.0025 10.6025 17.0025C10.6025 17.0025 10.73 17.095 10.9613 17.2263C10.9738 17.2388 10.9862 17.2525 11.0125 17.265C11.0512 17.2925 11.09 17.305 11.1288 17.3312C11.45 17.515 11.7713 17.6588 12.0663 17.7775C12.5938 17.9875 13.2237 18.1975 13.9575 18.3425C15.0566 18.5579 16.1868 18.5622 17.2875 18.355C17.9286 18.2406 18.5542 18.0514 19.1512 17.7912C19.6012 17.62 20.1025 17.37 20.63 17.0162C20.63 17.0162 19.9875 18.0925 18.3025 18.5787C18.6887 19.0775 19.1525 19.6413 19.1525 19.6413H19.1512Z" fill="#2EAFFF"/>
</svg>
