<svg width="31" height="30" viewBox="0 0 31 30" fill="none" xmlns="http://www.w3.org/2000/svg">
<path fill-rule="evenodd" clip-rule="evenodd" d="M15.5 0.441162C23.5408 0.441162 30.0588 7.12364 30.0588 15.3683C30.0588 21.9619 25.8921 27.5554 20.1108 29.531C19.3726 29.6781 19.1106 29.2122 19.1106 28.8147C19.1106 28.3227 19.1281 26.7154 19.1281 24.7179C19.1281 23.3261 18.6622 22.4176 18.1395 21.9547C21.3818 21.5849 24.7885 20.3226 24.7885 14.5894C24.7885 12.9588 24.2236 11.6281 23.289 10.5828C23.4404 10.2057 23.9397 8.68725 23.1463 6.63155C23.1463 6.63155 21.9263 6.23118 19.147 8.16168C17.9595 7.83069 16.7327 7.66174 15.5 7.6594C14.2682 7.66162 13.0424 7.83058 11.8559 8.16168C9.07374 6.23118 7.85079 6.63155 7.85079 6.63155C7.06025 8.68725 7.55962 10.2057 7.70957 10.5828C6.77926 11.6281 6.21001 12.9588 6.21001 14.5894C6.21001 20.3081 9.6095 21.5892 12.843 21.9663C12.4266 22.339 12.0496 22.9971 11.9185 23.9623C11.0887 24.3438 8.98056 25.0033 7.68191 22.7219C7.68191 22.7219 6.91175 21.2879 5.45004 21.183C5.45004 21.183 4.03056 21.1641 5.35104 22.0901C5.35104 22.0901 6.30465 22.5487 6.96707 24.2739C6.96707 24.2739 7.82168 26.9381 11.8719 26.0355C11.8792 27.2832 11.8923 28.4595 11.8923 28.8147C11.8923 29.2093 11.6244 29.6708 10.898 29.5325C5.11228 27.5598 0.941176 21.9634 0.941176 15.3683C0.941176 7.12364 7.46062 0.441162 15.5 0.441162Z" fill="#2EAFFF"/>
</svg>
