<svg width="31" height="30" viewBox="0 0 31 30" fill="none" xmlns="http://www.w3.org/2000/svg">
<path d="M15.5 2.5C18.8963 2.5 19.32 2.5125 20.6525 2.575C21.9837 2.6375 22.89 2.84625 23.6875 3.15625C24.5125 3.47375 25.2075 3.90375 25.9025 4.5975C26.5381 5.22237 27.0299 5.97824 27.3438 6.8125C27.6525 7.60875 27.8625 8.51625 27.925 9.8475C27.9838 11.18 28 11.6037 28 15C28 18.3963 27.9875 18.82 27.925 20.1525C27.8625 21.4837 27.6525 22.39 27.3438 23.1875C27.0308 24.0222 26.5389 24.7783 25.9025 25.4025C25.2775 26.0379 24.5216 26.5297 23.6875 26.8438C22.8912 27.1525 21.9837 27.3625 20.6525 27.425C19.32 27.4838 18.8963 27.5 15.5 27.5C12.1037 27.5 11.68 27.4875 10.3475 27.425C9.01625 27.3625 8.11 27.1525 7.3125 26.8438C6.47791 26.5306 5.72191 26.0387 5.0975 25.4025C4.46176 24.7777 3.96991 24.0218 3.65625 23.1875C3.34625 22.3912 3.1375 21.4837 3.075 20.1525C3.01625 18.82 3 18.3963 3 15C3 11.6037 3.0125 11.18 3.075 9.8475C3.1375 8.515 3.34625 7.61 3.65625 6.8125C3.96905 5.97772 4.461 5.22165 5.0975 4.5975C5.72209 3.96154 6.47804 3.46966 7.3125 3.15625C8.11 2.84625 9.015 2.6375 10.3475 2.575C11.68 2.51625 12.1037 2.5 15.5 2.5ZM15.5 8.75C13.8424 8.75 12.2527 9.40848 11.0806 10.5806C9.90848 11.7527 9.25 13.3424 9.25 15C9.25 16.6576 9.90848 18.2473 11.0806 19.4194C12.2527 20.5915 13.8424 21.25 15.5 21.25C17.1576 21.25 18.7473 20.5915 19.9194 19.4194C21.0915 18.2473 21.75 16.6576 21.75 15C21.75 13.3424 21.0915 11.7527 19.9194 10.5806C18.7473 9.40848 17.1576 8.75 15.5 8.75V8.75ZM23.625 8.4375C23.625 8.0231 23.4604 7.62567 23.1674 7.33265C22.8743 7.03962 22.4769 6.875 22.0625 6.875C21.6481 6.875 21.2507 7.03962 20.9576 7.33265C20.6646 7.62567 20.5 8.0231 20.5 8.4375C20.5 8.8519 20.6646 9.24933 20.9576 9.54235C21.2507 9.83538 21.6481 10 22.0625 10C22.4769 10 22.8743 9.83538 23.1674 9.54235C23.4604 9.24933 23.625 8.8519 23.625 8.4375ZM15.5 11.25C16.4946 11.25 17.4484 11.6451 18.1517 12.3483C18.8549 13.0516 19.25 14.0054 19.25 15C19.25 15.9946 18.8549 16.9484 18.1517 17.6517C17.4484 18.3549 16.4946 18.75 15.5 18.75C14.5054 18.75 13.5516 18.3549 12.8483 17.6517C12.1451 16.9484 11.75 15.9946 11.75 15C11.75 14.0054 12.1451 13.0516 12.8483 12.3483C13.5516 11.6451 14.5054 11.25 15.5 11.25V11.25Z" fill="#2EAFFF"/>
</svg>
