<svg width="31" height="30" viewBox="0 0 31 30" fill="none" xmlns="http://www.w3.org/2000/svg">
<g clip-path="url(#clip0_34_119)">
<path d="M28 17.9438C28 17.0163 27.295 16.2613 26.425 16.2613H13.845C12.975 16.2613 12.27 17.0163 12.27 17.9438C12.27 18.8713 12.9737 19.6263 13.845 19.6263H26.425C27.295 19.6275 28 18.8725 28 17.9438Z" fill="#2EAFFF"/>
<path d="M4.8525 22.734L10.2438 28.1852C11.46 29.409 13.1412 30.0002 14.9975 30.0002C16.8537 30.0002 18.535 29.3602 19.7537 28.1327L22.9887 24.8365C23.6262 24.194 23.6037 23.1302 22.94 22.4615C22.2762 21.7927 21.2213 21.7702 20.585 22.4127L17.24 25.6715C16.6625 26.2552 15.8625 26.499 14.9788 26.499C14.095 26.499 13.2962 26.2552 12.7162 25.6715L7.34375 20.2177C6.765 19.634 6.47375 18.7802 6.47375 17.889C6.47375 16.9977 6.765 16.1927 7.34375 15.609L12.7 10.134C13.2788 9.55023 14.095 9.32773 14.9775 9.32773C15.86 9.32773 16.66 9.57148 17.2387 10.1552L20.5837 13.4127C21.2212 14.0565 22.2762 14.034 22.94 13.3652C23.6037 12.6952 23.6262 11.6315 22.9887 10.989L19.7537 7.69398C18.9425 6.88648 17.915 6.29898 16.7637 6.03148L16.7213 6.02273L19.78 2.89398C20.42 2.25148 20.3975 1.18648 19.7338 0.517729C19.07 -0.151021 18.0137 -0.172271 17.375 0.470229L4.8525 13.0952C3.63625 14.3227 3 16.0165 3 17.889C3 19.7615 3.63625 21.509 4.8525 22.734Z" fill="#2EAFFF"/>
</g>
<defs>
<clipPath id="clip0_34_119">
<rect width="30" height="30" fill="white" transform="translate(0.5)"/>
</clipPath>
</defs>
</svg>
