<svg width="31" height="30" viewBox="0 0 31 30" fill="none" xmlns="http://www.w3.org/2000/svg">
<path d="M23.4187 22.9238H20.0875V17.7025C20.0875 16.4575 20.0625 14.855 18.35 14.855C16.6137 14.855 16.3487 16.21 16.3487 17.6112V22.9238H13.0162V12.1875H16.2162V13.65H16.26C16.7075 12.8075 17.795 11.9162 19.42 11.9162C22.795 11.9162 23.42 14.1387 23.42 17.03V22.9238H23.4187ZM9.25375 10.7187C8.99944 10.7191 8.74757 10.6692 8.51258 10.572C8.27758 10.4748 8.06408 10.3322 7.88432 10.1523C7.70456 9.97242 7.56207 9.75882 7.46501 9.52377C7.36796 9.28871 7.31826 9.03681 7.31875 8.7825C7.319 8.39979 7.43272 8.02575 7.64555 7.70768C7.85838 7.38961 8.16074 7.14179 8.51441 6.99557C8.86808 6.84934 9.25717 6.81127 9.63248 6.88618C10.0078 6.96108 10.3524 7.14559 10.6229 7.41638C10.8933 7.68717 11.0774 8.03208 11.1518 8.40748C11.2262 8.78288 11.1877 9.17192 11.041 9.5254C10.8943 9.87888 10.6461 10.1809 10.3277 10.3933C10.0094 10.6058 9.63521 10.719 9.2525 10.7187H9.25375ZM10.9237 22.9238H7.5825V12.1875H10.925V22.9238H10.9237ZM25.0875 3.75H5.91125C4.99125 3.75 4.25 4.475 4.25 5.37125V24.6287C4.25 25.525 4.9925 26.25 5.91 26.25H25.0825C26 26.25 26.75 25.525 26.75 24.6287V5.37125C26.75 4.475 26 3.75 25.0825 3.75H25.0863H25.0875Z" fill="#2EAFFF"/>
</svg>
