<svg width="31" height="30" viewBox="0 0 31 30" fill="none" xmlns="http://www.w3.org/2000/svg">
<g clip-path="url(#clip0_34_115)">
<path d="M28 16.6762C26.6647 16.2033 25.2227 16.1181 23.8409 16.4307C22.4592 16.7433 21.1943 17.4408 20.1925 18.4425C19.1908 19.4443 18.4933 20.7092 18.1807 22.0909C17.8681 23.4727 17.9533 24.9147 18.4262 26.25H4.25C3.91848 26.25 3.60054 26.1183 3.36612 25.8839C3.1317 25.6495 3 25.3315 3 25V5C3 4.66848 3.1317 4.35054 3.36612 4.11612C3.60054 3.8817 3.91848 3.75 4.25 3.75H26.75C27.0815 3.75 27.3995 3.8817 27.6339 4.11612C27.8683 4.35054 28 4.66848 28 5V16.6762ZM15.575 14.6037L7.56 7.7975L5.94125 9.7025L15.5912 17.8963L25.0675 9.69625L23.4325 7.805L15.5762 14.6037H15.575ZM26.75 22.5H30.5V25H26.75V28.75H24.25V25H20.5V22.5H24.25V18.75H26.75V22.5Z" fill="#2EAFFF"/>
</g>
<defs>
<clipPath id="clip0_34_115">
<rect width="30" height="30" fill="white" transform="translate(0.5)"/>
</clipPath>
</defs>
</svg>
